<svg xmlns="http://www.w3.org/2000/svg" width="58" height="84" fill="none"><path fill-rule="evenodd" clip-rule="evenodd" d="M29 19.158c4.215 0 7.631-3.3 7.631-7.369S33.215 4.421 29 4.421s-7.632 3.299-7.632 7.369c0 4.069 3.417 7.368 7.632 7.368zm0 4.42c6.743 0 12.21-5.277 12.21-11.788C41.21 5.278 35.743 0 29 0c-6.744 0-12.21 5.278-12.21 11.79 0 6.51 5.466 11.789 12.21 11.789z" fill="#0B0B77"/><path d="M0 38.316c0-15.464 12.984-28 29-28s29 12.536 29 28v39.79C58 81.36 55.267 84 51.895 84H6.105C2.733 84 0 81.36 0 78.105v-39.79z" fill="#4141E5"/><path fill-rule="evenodd" clip-rule="evenodd" d="M18.96 21.342c.965-.628 2.295-1.103 3.73-1.445 3.925-.936 8.042-.948 11.994-.174 1.607.315 3.1.781 4.181 1.436 1.059.64 1.564 1.351 1.632 2.18.11 1.342-.082 2.156-.39 2.684-.295.504-.8.93-1.727 1.291-5.412 2.107-13.395 2.097-18.618-.158-.915-.395-1.482-.855-1.819-1.383-.332-.523-.542-1.27-.44-2.426.065-.73.51-1.388 1.458-2.005zm9.323-5.13l.006.215c-.005-.214-.003-.214-.003-.214h.013l.034-.001.123-.001.447.001c.38.005.921.018 1.57.052 1.29.068 3.038.222 4.818.57 1.759.345 3.663.9 5.195 1.827 1.556.941 2.883 2.373 3.054 4.444.138 1.67-.059 3.14-.774 4.366-.57.974-1.396 1.674-2.379 2.186 1.816.356 3.613.904 5.094 1.775 1.979 1.165 3.463 2.967 3.545 5.587.084 2.724-1.533 4.64-3.6 5.906-1.399.857-3.084 1.475-4.81 1.926 2.652.624 5.35 1.5 7.424 2.75 2.239 1.35 4.1 3.37 3.83 6.206-.463 4.845-4.845 7.6-9.404 9.1-4.66 1.536-10.172 2.008-14.183 1.926-3.744-.076-8.907-.684-13.281-2.248-4.27-1.528-8.408-4.21-8.87-8.77-.272-2.703 1.492-4.661 3.59-5.985 2.111-1.331 4.91-2.267 7.596-2.93l.258-.064c-1.869-.485-3.735-1.167-5.245-2.142-1.926-1.244-3.44-3.094-3.355-5.678.08-2.446 1.386-4.179 3.179-5.337 1.68-1.084 3.812-1.69 5.874-2.058-1.084-.54-2.03-1.275-2.686-2.304-.756-1.187-1.024-2.604-.881-4.22.17-1.92 1.383-3.28 2.791-4.198 1.392-.907 3.116-1.485 4.706-1.864a32.013 32.013 0 0 1 4.348-.696 36.254 36.254 0 0 1 1.417-.104 23.913 23.913 0 0 1 .515-.021l.031-.001h.013zm18.141 33.89c-1.813-1.092-4.395-1.92-7.142-2.527-7.166-1.582-14.104-1.576-21.207.18-2.576.636-4.992 1.476-6.683 2.542-1.704 1.075-2.331 2.14-2.221 3.231.278 2.753 2.834 4.841 6.891 6.293 3.953 1.414 8.752 1.993 12.286 2.066 3.78.077 8.912-.379 13.133-1.769 4.323-1.424 7.064-3.593 7.349-6.582.115-1.21-.585-2.337-2.406-3.434zM29.5 44c9.665 0 17.5-2.91 17.5-6.5S39.165 31 29.5 31 12 33.91 12 37.5 19.835 44 29.5 44z" fill="#B8B8F4"/><path d="M0 63.368h58v14.737C58 81.361 55.267 84 51.895 84H6.105C2.733 84 0 81.36 0 78.105V63.368z" fill="#0B0B77"/><path d="M9.158 72.21h39.684v2.948c0 1.628-1.367 2.947-3.053 2.947H12.211c-1.686 0-3.053-1.32-3.053-2.947V72.21z" fill="#2C2C9E"/><path d="M9.158 58.947h39.684v13.264c0 1.627-1.367 2.947-3.053 2.947H12.211c-1.686 0-3.053-1.32-3.053-2.947V58.947z" fill="#4141E5"/><path d="M9.158 56c0-2.442 2.05-4.421 4.579-4.421h30.526c2.53 0 4.58 1.98 4.58 4.42v1.475H9.157V56z" fill="#0B0B77"/><path d="M9.158 57.474h39.684v2.947H9.158v-2.947z" fill="#2C2C9E"/><path d="M29 61.895l6.105 5.895L29 73.684l-6.105-5.894L29 61.895z" fill="#0B0B77"/><path d="M27.12 65.432a.6.6 0 0 1 .61-.59.6.6 0 0 1 .61.59v4.715a.6.6 0 0 1-.61.59.6.6 0 0 1-.61-.59v-4.715zm2.442 0a.6.6 0 0 1 .61-.59.6.6 0 0 1 .61.59v4.715a.6.6 0 0 1-.61.59.6.6 0 0 1-.61-.59v-4.715z" fill="#B8B8F4"/><path d="M7.632 36.842c0-.814.683-1.474 1.526-1.474h3.053c.842 0 1.526.66 1.526 1.474s-.684 1.474-1.527 1.474H9.159c-.843 0-1.526-.66-1.526-1.474zm6.105-13.263c0-.814.683-1.474 1.526-1.474h1.527c.843 0 1.526.66 1.526 1.474s-.683 1.474-1.526 1.474h-1.527c-.843 0-1.526-.66-1.526-1.474zM4.58 53.053c0-.814.682-1.474 1.525-1.474h3.053c.843 0 1.526.66 1.526 1.474s-.683 1.473-1.526 1.473H6.105c-.843 0-1.526-.66-1.526-1.473zm39.683-16.211c0-.814.683-1.474 1.526-1.474h3.053c.843 0 1.526.66 1.526 1.474s-.683 1.474-1.526 1.474h-3.053c-.843 0-1.526-.66-1.526-1.474zm3.053 16.211c0-.814.683-1.474 1.526-1.474h3.053c.843 0 1.526.66 1.526 1.474s-.683 1.473-1.526 1.473h-3.053c-.843 0-1.526-.66-1.526-1.473zm-7.632-29.474c0-.814.684-1.474 1.527-1.474h1.526c.843 0 1.526.66 1.526 1.474s-.683 1.474-1.526 1.474h-1.526c-.843 0-1.527-.66-1.527-1.474z" fill="#0B0B77"/><path d="M13.737 57.474h3.053v5.894h-3.053v-5.894z" fill="#B8B8F4"/><path fill-rule="evenodd" clip-rule="evenodd" d="M15.263 66.316c.843 0 1.527-.66 1.527-1.474s-.684-1.474-1.527-1.474c-.843 0-1.526.66-1.526 1.474s.683 1.474 1.526 1.474zm0 1.474c1.686 0 3.053-1.32 3.053-2.948s-1.367-2.947-3.053-2.947-3.052 1.32-3.052 2.947c0 1.628 1.366 2.948 3.052 2.948z" fill="#B8B8F4"/><path fill-rule="evenodd" clip-rule="evenodd" d="M3.053 63.368v14.737c0 1.628 1.366 2.948 3.052 2.948h45.79c1.686 0 3.052-1.32 3.052-2.948V63.368H58v14.737C58 81.361 55.267 84 51.895 84H6.105C2.733 84 0 81.36 0 78.105V63.368h3.053z" fill="#2C2C9E"/></svg>