<svg xmlns="http://www.w3.org/2000/svg" width="37" height="64" fill="none"><path d="M30.52 55.405c.9 0 1.671.782 1.671 1.693v5.21c0 .91-.77 1.692-1.67 1.692-.9 0-1.671-.781-1.671-1.693v-5.209a1.67 1.67 0 0 1 1.67-1.693zm-23.586 0c.9 0 1.671.782 1.671 1.693v5.21c0 .91-.77 1.692-1.67 1.692-.9 0-1.671-.781-1.671-1.693v-5.209c0-.976.707-1.693 1.67-1.693z" fill="#0A0A7A"/><path d="M29.384 56.962H7.242a1.564 1.564 0 0 0 0 3.128h22.142a1.564 1.564 0 1 0 0-3.128z" fill="#0A0A7A"/><path d="M13.841 3.256h-2.12v14.52h2.12V3.256zm11.569 0h-2.12v14.52h2.12V3.256z" fill="#090959"/><path d="M26.823 0H10.179c-.9 0-1.671.781-1.671 1.693s.771 1.693 1.67 1.693h16.645c.9 0 1.67-.781 1.67-1.693S27.723 0 26.823 0z" fill="#090959"/><path d="M29.896 58.526H7.104C3.197 58.526 0 55.186 0 51.103V13.555c0-4.083 3.197-7.423 7.104-7.423h22.792c3.907 0 7.104 3.34 7.104 7.423v37.548c0 4.083-3.197 7.423-7.104 7.423z" fill="#3030D1"/><path d="M8.719 7.695h19.563v5.963c0 5.403-4.38 9.782-9.782 9.782s-9.78-4.38-9.78-9.782V7.695z" fill="#090959" fill-opacity=".5"/><rect width="5.254" height="3.641" rx="1" transform="translate(15.873 21.168)" fill="#4141E5"/><rect width="4.21" height="1.546" rx=".773" transform="translate(16.402 21.66)" fill="#090959"/><path d="M27.079 53.052c-2.134 0-3.868.068-3.868.151v2.825c0 .084 1.734.152 3.868.152s3.868-.068 3.868-.152v-2.83c0-.078-1.734-.146-3.868-.146z" fill="#090975"/><rect width="23.982" height="2.174" rx="1.087" transform="translate(6.965 40.54)" fill="#040483" fill-opacity=".5"/><rect width="23.982" height="2.174" rx="1.087" transform="translate(6.965 36.281)" fill="#040483" fill-opacity=".5"/><rect width="23.982" height="2.174" rx="1.087" transform="translate(6.965 44.536)" fill="#040483" fill-opacity=".5"/><rect width="23.982" height="2.174" rx="1.087" transform="translate(6.965 48.794)" fill="#040483" fill-opacity=".5"/></svg>