<svg xmlns="http://www.w3.org/2000/svg" width="94" height="147" viewBox="0 0 94 147" fill="none"><path d="M10.646 142.344C4.756 142.344 0 137.575 0 131.67V53.315C0 43.095 8.267 34.92 18.347 34.92h57.306C85.846 34.919 94 43.209 94 53.315v78.355c0 5.905-4.757 10.674-10.646 10.674H10.646z" fill="#1111B7"/><path d="M89.584 72.393h-3.058V53.315c0-6.018-4.87-10.788-10.76-10.788H18.348c-6.002 0-10.759 4.883-10.759 10.788v19.078H4.531V53.315c0-7.608 6.228-13.854 13.817-13.854h57.305c7.588 0 13.817 6.246 13.817 13.854v19.078h.114z" fill="#090959"/><path d="M18.347 110.662h57.306c4.53 0 8.268-3.748 8.268-8.29V54.451c0-4.543-3.738-8.29-8.268-8.29H18.347c-4.53 0-8.267 3.747-8.267 8.29v47.921a8.252 8.252 0 0 0 8.267 8.29z" fill="#4141E5"/><path d="M20.612 94.877c-1.926 0-3.511-1.59-3.511-3.52V57.97c0-1.93 1.585-3.407 3.398-3.407H73.5c1.925 0 3.397 1.59 3.397 3.407v33.386c0 1.93-1.585 3.52-3.51 3.52H20.612z" fill="#1111B7"/><path d="M73.954 60.81H20.159v3.066h53.795V60.81zM87.546 114.295H4.418v3.067h83.128v-3.067z" fill="#090959"/><path d="M6.002 82.84c1.02 0 1.812-.795 1.812-1.817V72.62a1.791 1.791 0 0 0-1.812-1.817c-1.02 0-1.812.795-1.812 1.817v8.403c0 .909.793 1.817 1.812 1.817zM21.97 73.642c1.02 0 1.813-.795 1.813-1.817v-8.403a1.791 1.791 0 0 0-1.812-1.817c-1.02 0-1.812.795-1.812 1.817v8.403c0 1.022.793 1.817 1.812 1.817zM6.341 127.809c1.02 0 1.812-.795 1.812-1.817v-8.403a1.791 1.791 0 0 0-1.812-1.817c-1.019 0-1.812.795-1.812 1.817v8.403c-.113 1.022.793 1.817 1.812 1.817z" fill="#B8B8F4"/><path d="M82 142H72v2a3 3 0 0 0 3 3h4a3 3 0 0 0 3-3v-2zM21 142H11v2a3 3 0 0 0 3 3h4a3 3 0 0 0 3-3v-2zM67 5h-5v30h5V5zM32 5h-5v30h5V5z" fill="#090959"/><path d="M21 35h52c0-1.6-1.463-3-3.377-3H24.377C22.576 32.1 21 33.4 21 35zM28 5h38v5a113.589 113.589 0 0 0-38-.122V5z" fill="#090959"/><path d="M30.2 1.79c11.429-2.387 22.629-2.387 33.714 0C65.743 2.226 67 3.854 67 5.59V7C53.4 4.504 40.029 4.504 27 7V5.59c0-1.737 1.371-3.365 3.2-3.8z" fill="#B8B8F4"/></svg>