<svg xmlns="http://www.w3.org/2000/svg" width="38" height="41" viewBox="0 0 38 41"><title>Seat</title><defs><linearGradient x1="100%" y1="0%" y2="100%" id="a"><stop stop-color="#80CB40" offset="0%"/><stop stop-color="#518808" offset="100%"/></linearGradient><linearGradient x1="100%" y1="0%" y2="100%" id="b"><stop stop-color="#F2F2F2" offset="0%"/><stop stop-color="#C9C9C9" offset="100%"/></linearGradient></defs><g fill="none" fill-rule="evenodd"><path d="M4 3a3 3 0 0 1 3-3h24a3 3 0 0 1 3 3v34a3 3 0 0 1-3 3H7a3 3 0 0 1-3-3V3z" fill="#86C536"/><path d="M0 19a2 2 0 0 1 2-2h2a2 2 0 0 1 2 2v13a2 2 0 0 1-2 2H2a2 2 0 0 1-2-2V19zM32 19a2 2 0 0 1 2-2h2a2 2 0 0 1 2 2v13a2 2 0 0 1-2 2h-2a2 2 0 0 1-2-2V19z" fill="#343434"/><path d="M9.5 28V7h-1v21h1zM11 5.5h16v-1H11v1zM28.5 7v21h1V7h-1zm-19 0A1.5 1.5 0 0 1 11 5.5v-1A2.5 2.5 0 0 0 8.5 7h1zM27 5.5A1.5 1.5 0 0 1 28.5 7h1A2.5 2.5 0 0 0 27 4.5v1z" fill="#000" fill-opacity=".2"/><path d="M0 3a3 3 0 0 1 3-3h24a3 3 0 0 1 3 3v4a3 3 0 0 1-3 3H3a3 3 0 0 1-3-3V3z" fill="url(#a)" transform="translate(4 31)"/><path d="M0 0h22v3a1 1 0 0 1-1 1H1a1 1 0 0 1-1-1V0z" transform="translate(8 31)" fill="url(#b)"/></g></svg>