<svg xmlns="http://www.w3.org/2000/svg" width="35" height="39" viewBox="0 0 35 38"><g fill="none"><path d="M27.857.28H5.853c-1.558 0-2.821 1.222-2.821 2.728V35.26c0 1.507 1.263 2.728 2.821 2.728h22.004c1.558 0 2.821-1.222 2.821-2.728V3.009c0-1.507-1.263-2.729-2.821-2.729z" fill="#C6007E"/><path d="M32.971 16.339h-2.735c-.776 0-1.411.635-1.411 1.411v12.891c0 .776.635 1.411 1.411 1.411h2.735c.776 0 1.411-.635 1.411-1.411V17.749c0-.776-.635-1.41-1.411-1.41zM4.342 16.45H1.607c-.776 0-1.411.635-1.411 1.411v12.891c0 .776.635 1.411 1.411 1.411h2.735c.776 0 1.411-.635 1.411-1.411V17.861c0-.776-.635-1.411-1.411-1.411z" fill="#303030"/><path d="M27.857 37.988H5.853a2.821 2.821 0 0 1-2.821-2.821v-3.788a2.821 2.821 0 0 1 2.821-2.821h22.004a2.821 2.821 0 0 1 2.821 2.821v3.788a2.821 2.821 0 0 1-2.821 2.821z" fill="#A50474"/><path d="M7.774 26.978V6.846c0-.911.793-1.649 1.771-1.649h14.62c.978 0 1.771.738 1.771 1.649v20.131" stroke="#A50474"/><path d="M8.368 32.61h16.973c.554 0 1.003-.449 1.003-1.003v-3.049H7.365v3.049c0 .554.449 1.003 1.003 1.003z" fill="#FFF"/></g></svg>