<svg xmlns="http://www.w3.org/2000/svg" width="38" height="41" viewBox="0 0 38 41" fill="none"><rect x="4" width="30" height="40" rx="3" fill="#C1C1C1"/><rect y="17" width="6" height="17" rx="2" fill="#343434"/><rect x="32" y="17" width="6" height="17" rx="2" fill="#343434"/><path d="M9 28V7a2 2 0 0 1 2-2h16a2 2 0 0 1 2 2v21" stroke="#000" stroke-opacity=".2"/><rect x="4" y="31" width="30" height="10" rx="3" fill="url(#a)"/><path fill-rule="evenodd" clip-rule="evenodd" d="M18.643 17.357L13 23l.707.707 5.643-5.643 5.65 5.65.707-.707-5.65-5.65 5.65-5.65L25 11l-5.65 5.65-5.643-5.643-.707.707 5.643 5.643z" fill="#000" fill-opacity=".2"/><path d="M8 31h22v3a1 1 0 0 1-1 1H9a1 1 0 0 1-1-1v-3z" fill="url(#b)"/><defs><linearGradient id="a" x1="19" y1="31" x2="19" y2="41" gradientUnits="userSpaceOnUse"><stop stop-color="#CACACA"/><stop offset="1" stop-color="#9B9B9B"/></linearGradient><linearGradient id="b" x1="19" y1="31" x2="19" y2="35" gradientUnits="userSpaceOnUse"><stop stop-color="#F2F2F2"/><stop offset="1" stop-color="#C9C9C9"/></linearGradient></defs></svg>